<?xml version="1.0" encoding="UTF-8"?>
<!DOCTYPE svg PUBLIC "-//W3C//DTD SVG 1.1//EN" "http://www.w3.org/Graphics/SVG/1.1/DTD/svg11.dtd">
<svg xmlns="http://www.w3.org/2000/svg" xml:space="preserve" width="178.647mm" height="178.647mm" version="1.1" style="shape-rendering:geometricPrecision; text-rendering:geometricPrecision; image-rendering:optimizeQuality; fill-rule:evenodd; clip-rule:evenodd"
viewBox="0 0 17865 17865"
 xmlns:xlink="http://www.w3.org/1999/xlink">
 <defs>
  <style type="text/css">
   <![CDATA[
    .fil0 {fill:#1F1B20}
    .fil1 {fill:#1F1B20;fill-rule:nonzero}
   ]]>
  </style>
 </defs>
 <g id="Слой_x0020_1">
  <metadata id="CorelCorpID_0Corel-Layer"/>
  <g id="_1941531437344">
   <path class="fil0" d="M9769 4740l224 180 -744 744 -136 -109c-408,-328 -869,-593 -1365,-763 -446,-153 -919,-230 -1390,-207 -422,20 -838,121 -1219,307 -377,184 -706,446 -970,774 -619,768 -803,1778 -756,2743 24,508 275,973 575,1372 188,252 402,486 624,708 239,239 489,467 743,690 299,262 600,522 901,781 758,653 1513,1306 2237,1995l467 444 -1523 0 -30 -27c-600,-554 -1217,-1087 -1835,-1620 -303,-261 -606,-522 -906,-786 -539,-474 -1083,-982 -1515,-1558 -432,-575 -749,-1221 -784,-1950 -58,-1228 202,-2474 987,-3448 360,-448 810,-808 1326,-1061 509,-248 1064,-382 1629,-409 596,-29 1195,64 1760,256 619,209 1192,535 1700,944z"/>
  </g>
  <path class="fil1" d="M9704 4821l134 107 -597 597 -62 -51c-888,-715 -1897,-1038 -2826,-993 -444,21 -872,128 -1259,317 -384,187 -727,456 -1006,802 -529,657 -837,1599 -779,2814 24,499 254,974 595,1430 367,488 864,958 1383,1413 283,249 591,514 901,782 728,627 1472,1269 2234,1992l278 264 -1223 0c-624,-576 -1237,-1104 -1837,-1622 -298,-256 -592,-510 -905,-785 -554,-487 -1089,-994 -1501,-1542 -436,-581 -730,-1205 -763,-1893 -69,-1436 313,-2570 964,-3378 360,-447 800,-792 1291,-1032 487,-238 1026,-373 1588,-399 1126,-54 2337,328 3390,1177z"/>
  <g id="_1941531435744">
   <path class="fil0" d="M6968 8890l22 38c92,156 209,304 327,442 150,174 312,339 476,499 387,376 799,730 1210,1078 162,138 325,274 488,410 262,220 524,439 782,663 200,173 400,350 591,534 387,-385 804,-734 1224,-1083 957,-795 1860,-1544 2212,-2792 208,-737 12,-1626 -320,-2300 -304,-616 -818,-1249 -1499,-1458l-252 -78 826 -826 65 30c802,365 1415,1091 1799,1869 445,904 667,2063 389,3046 -230,815 -634,1479 -1208,2096 -412,443 -879,831 -1344,1217 -267,222 -518,462 -768,704 -243,235 -485,473 -741,694 -240,207 -562,231 -778,-23 -91,-107 -191,-208 -291,-306 -127,-122 -258,-241 -391,-358 -317,-281 -644,-553 -969,-826 -194,-163 -388,-326 -582,-490 -428,-364 -854,-736 -1253,-1132 -178,-177 -351,-360 -512,-552 -139,-166 -273,-342 -383,-529 -11,-20 -23,-41 -35,-61 -2,-2 -3,-3 -4,-5 -1,-2 -2,-3 -3,-5 -2,-3 -4,-6 -6,-9 -8,-14 -17,-28 -25,-42 -332,-559 -548,-946 -548,-1622l0 -524 1049 0 0 524c0,430 187,729 399,1087l53 89 0 1z"/>
  </g>
  <path class="fil1" d="M5571 7713l0 -420 841 0 0 420c0,443 176,739 415,1141 8,14 5,8 0,0l0 1 74 125c397,676 1512,1610 2523,2457 544,455 1058,887 1441,1263 419,-426 860,-792 1290,-1149 971,-807 1885,-1567 2245,-2844 199,-703 54,-1601 -326,-2374 -354,-716 -905,-1310 -1562,-1511l-88 -27 653 -653c748,340 1356,1023 1749,1820 466,946 637,2069 382,2972 -431,1525 -1443,2367 -2518,3261 -546,454 -1015,971 -1511,1400 -194,167 -452,198 -631,-13 -322,-378 -968,-920 -1663,-1501 -1062,-890 -2232,-1871 -2707,-2677 -96,-162 1,4 -74,-123 -307,-516 -533,-897 -533,-1568zm1256 1141c-6,-10 -15,-24 0,1l0 -1z"/>
  <g id="_1941531434016">
   <path class="fil0" d="M13576 12678l-225 -165 793 -717 68 50c117,85 307,210 460,199 156,-11 350,-161 467,-256 1039,-847 1518,-2059 1500,-3382 -11,-746 -178,-1490 -448,-2184 -293,-753 -714,-1460 -1224,-2086 -706,-867 -1589,-1585 -2590,-2086 -1085,-543 -2274,-810 -3487,-793 -2032,29 -4078,806 -5532,2244 -1433,1419 -2092,3273 -2079,5273 14,2073 730,4074 2175,5580 1420,1482 3339,2268 5383,2316 589,14 1178,-34 1756,-146 565,-110 1117,-281 1644,-513 941,-414 1784,-1016 2466,-1787l31 -35 1359 0 -405 495c-814,995 -1854,1769 -3029,2286 -596,262 -1221,456 -1861,580 -653,127 -1320,182 -1985,166 -2323,-55 -4501,-954 -6114,-2637 -1631,-1701 -2450,-3958 -2465,-6300 -15,-2287 750,-4400 2387,-6020 1645,-1628 3954,-2514 6257,-2547 1378,-20 2730,283 3963,900 1135,567 2137,1381 2938,2364 579,711 1054,1513 1387,2369 316,810 506,1677 518,2548 23,1650 -591,3153 -1885,4207 -309,251 -647,460 -1053,489 -441,32 -823,-158 -1170,-412z"/>
  </g>
  <path class="fil1" d="M13638 12594l-123 -90 636 -574c222,161 388,229 528,219 150,-11 317,-110 525,-279 1082,-881 1558,-2132 1539,-3464 -11,-729 -168,-1484 -455,-2221 -289,-740 -708,-1460 -1240,-2114 -1392,-1708 -3552,-2954 -6159,-2917 -2045,29 -4121,807 -5604,2274 -1285,1272 -2124,3067 -2110,5348 15,2248 837,4226 2204,5651 1361,1421 3267,2296 5456,2348 1208,29 2385,-202 3444,-668 953,-419 1809,-1030 2502,-1813l1093 0 -266 325c-807,988 -1835,1749 -2991,2257 -1168,514 -2468,768 -3802,737 -2420,-58 -4530,-1029 -6041,-2605 -1511,-1576 -2420,-3756 -2436,-6229 -16,-2529 921,-4525 2356,-5945 1642,-1624 3933,-2485 6185,-2517 2888,-41 5280,1336 6819,3225 587,722 1051,1519 1371,2341 322,827 499,1682 511,2513 22,1579 -548,3067 -1847,4124 -340,277 -648,442 -995,467 -352,25 -698,-97 -1100,-393z"/>
 </g>
</svg>
